<svg width="152" height="40" viewBox="0 0 152 40" fill="none" xmlns="http://www.w3.org/2000/svg">
<g clip-path="url(#clip0_115_306)">
<path d="M151.872 26.6746C151.968 27.4359 151.968 29.3509 151.872 30.1201C151.28 35.056 146.29 39.4391 141.42 39.8798C128.09 41.0737 123.172 23.5016 135.063 18.0288C141.868 14.8958 150.896 19.0785 151.864 26.6746H151.872ZM139.181 19.4551C127.37 20.5929 128.866 38.4375 141.037 37.3878C152.736 36.3701 151.352 18.2852 139.181 19.4551Z" fill="black"/>
<path d="M28.8123 0.0726663C32.027 1.09831 33.3065 5.3451 30.9155 7.82106C30.6276 8.12555 29.0363 9.06305 28.7164 9.06305H23.6385V6.76337H27.9487C28.7164 6.76337 29.7719 5.36914 29.7719 4.55985C29.7719 3.62235 28.6204 2.35632 27.7568 2.35632H23.2547V13.6464H20.7597V0.0566406H28.8123V0.0726663Z" fill="black"/>
<path d="M12.5232 0.0722656V13.662H10.2202V9.07066H6.96555C7.11748 8.64598 8.23701 6.99534 8.5009 6.86714C8.92472 6.6588 10.2282 6.86714 10.2282 6.77098V4.0947L2.83928 13.654H0.0644531L10.0283 0.0722656H12.5232Z" fill="black"/>
<path d="M13.2828 0.0722656L20.3758 9.54342V13.662L13.0429 4.04662C12.723 2.77259 12.9789 1.38637 12.8989 0.0802784H13.2828V0.0722656Z" fill="#AD4340"/>
<path d="M97.5831 36.5712C97.4872 35.81 96.0798 32.7972 95.6879 31.8036C95.3441 30.9302 94.8883 29.8885 94.5124 28.919C93.3209 25.9142 92.0495 22.9414 90.9379 19.8965C90.786 19.7042 88.7229 19.7283 88.6349 19.8084C88.459 19.9606 87.2995 23.7267 86.9636 24.2795C86.9716 24.3036 86.9876 24.3356 87.0116 24.3677C87.4434 25.193 89.4746 27.7251 91.2018 29.9045C91.2338 29.9446 91.2658 29.9847 91.2978 30.0328C92.7212 31.9558 93.7288 33.3661 93.7288 33.5344V39.4638L93.217 39.1994L85.2603 28.5824L85.2203 28.6866L81.9497 36.7555C82.1576 37.9735 83.3811 38.5344 84.0128 39.4959H76.1602L77.8874 38.2539C80.4943 34.8965 81.35 30.3372 83.2132 26.5231C83.2692 26.3629 83.2452 26.1706 83.1652 25.9703C82.9013 25.2892 82.0777 24.4638 81.6299 23.8789L81.5099 23.7106C81.398 23.5504 81.334 23.4222 81.334 23.326V17.3565C81.6379 17.3004 81.6459 17.5087 81.8058 17.685C81.9097 17.7972 82.4295 18.4542 83.2052 19.4558C83.2212 19.4558 83.2292 19.4719 83.2292 19.4879C83.9729 20.5456 84.7405 21.6513 84.8765 21.6994C84.9085 21.7074 84.9485 21.7154 84.9724 21.7154C85.2363 21.7555 85.1644 21.4911 85.2523 21.3148C85.5482 20.6978 86.6038 17.5568 86.8836 17.3885L92.8091 17.3164L100.142 35.9302C100.654 37.044 101.557 38.1497 102.509 38.919C102.813 39.1674 103.293 39.1754 103.373 39.4959H95.512C96.0398 38.5904 97.7431 37.7491 97.5831 36.5712Z" fill="black"/>
<path d="M38.3037 17.2932C40.7346 17.6217 43.1096 20.0656 43.4855 22.4534C44.1572 26.7162 41.8462 29.8973 37.632 30.5945C39.5831 32.822 41.6223 36.8605 44.533 37.8621C44.9809 38.0143 46.1883 38.0945 46.2523 38.1586C46.3243 38.2227 46.2123 39.2323 46.2523 39.4967C40.1349 39.9614 37.584 34.4967 34.2734 30.4983H26.7006V37.1009C26.7006 37.7499 27.8121 38.9839 28.2359 39.4967H22.4863L23.7418 38.1666C23.9897 37.6537 24.1496 36.9005 24.2056 36.3316C24.5814 32.3012 24.5015 25.1057 24.2216 21.0111C24.1096 19.4246 23.7338 18.3188 22.4863 17.2852H38.3037V17.2932ZM26.7006 28.0143H36.9522C37.3361 28.0143 38.8634 27.3332 39.2553 27.0528C42.366 24.7932 40.8546 20.2018 37.1522 19.7771C35.3609 19.5768 30.483 19.5608 28.7157 19.7771C27.916 19.8733 26.7086 20.8028 26.7086 21.6041V28.0143H26.7006Z" fill="black"/>
<path d="M103.949 39.4963C104.925 38.4466 105.381 38.054 105.493 36.5396C105.892 31.163 105.181 25.3056 105.493 19.8809C105.445 18.7751 104.581 18.086 103.957 17.3008H116.32C118.191 17.3008 121.718 19.1998 123.125 20.4578C128.915 25.6261 126.732 35.8424 119.727 38.695C119.271 38.8793 117.448 39.5043 117.088 39.5043H103.957L103.949 39.4963ZM109.843 19.8248C108.931 20.0091 108.251 20.8665 108.163 21.788C108.467 26.0428 107.772 30.8184 108.163 35.0091C108.243 35.9226 108.851 36.844 109.811 36.9963C111.394 37.2447 116.36 37.1165 117.863 36.6357C125.812 34.0957 125.844 22.5091 117.671 20.1614C116.112 19.7126 111.41 19.5123 109.851 19.8248H109.843Z" fill="black"/>
<path d="M4.27868 30.4979V37.4851C4.27868 37.5652 4.91841 38.679 5.03836 38.8312C5.30225 39.1678 5.71807 39.1758 5.80604 39.4963H0.0644531C1.04004 38.4466 1.49585 38.054 1.6078 36.5396C1.99964 31.2271 1.29593 25.4338 1.6078 20.0732C1.47186 18.8713 0.840127 18.1501 0.0724498 17.3008H15.8898C16.2097 17.3008 17.673 18.0059 18.0329 18.2223C22.1112 20.6261 22.1512 27.2447 18.0329 29.5844C17.6331 29.8168 16.0497 30.5059 15.6979 30.5059H4.27868V30.4979ZM4.27868 21.2191C3.89484 22.9899 4.56656 26.0908 4.27868 28.0139H14.3384C14.7223 28.0139 16.5215 27.2287 16.9134 26.9482C19.9681 24.7607 18.1768 20.1533 14.5304 19.7848C12.6192 19.5924 8.18104 19.5684 6.29383 19.7848C5.55014 19.8729 4.44661 20.4578 4.27868 21.2191Z" fill="black"/>
<path d="M61.2058 17.293L59.5505 19.176C59.3426 19.5285 59.0867 19.8891 59.2307 20.3138L65.7879 36.8923C65.9319 37.0927 67.979 37.0846 68.1309 36.8923L74.7841 20.2176C74.9201 19.1439 73.2088 18.1183 72.713 17.301H80.5737L78.4626 19.1119L77.535 20.4821L70.0581 39.3843C69.8822 39.6327 64.2446 39.5686 63.9967 39.3122L56.5678 20.6984L55.1684 18.6551L53.3691 17.293H61.2298H61.2058Z" fill="black"/>
<path d="M52.9627 17.2932C51.9311 18.1505 51.5233 18.8957 51.4193 20.2499C51.0195 25.6185 51.7392 31.4839 51.4193 36.9086C51.5553 38.1826 52.203 38.5993 52.9547 39.4887H47.2051C47.485 39.1201 47.8048 39.056 48.1327 38.5912C48.4845 38.0945 48.6925 37.5095 48.7484 36.9086C49.2842 31.4839 48.3246 25.1938 48.7484 19.673C48.6845 18.6073 47.7648 18.0544 47.2131 17.2852H52.9627V17.2932Z" fill="black"/>
<path d="M93.7283 33.5349V39.5685L93.1525 39.272L85.2199 28.6871L85.1959 28.655L83.4446 26.3474L83.1647 25.9708L81.6294 23.8794L81.5094 23.7111L81.2695 23.3906V17.365C81.2695 17.365 81.3095 17.357 81.3335 17.357C81.6374 17.3009 81.6454 17.5092 81.8053 17.6855C81.9093 17.7977 82.429 18.4547 83.2047 19.4563C83.2207 19.4563 83.2287 19.4724 83.2287 19.4884C83.7245 20.1134 84.3163 20.8746 84.972 21.7159C85.6117 22.5413 86.2994 23.4467 87.0111 24.3682C88.4665 26.2672 89.9779 28.2624 91.2014 29.905C91.2333 29.9451 91.2653 29.9852 91.2973 30.0333C92.7207 31.9563 93.7283 33.3666 93.7283 33.5349Z" fill="#AD4340"/>
</g>
<defs>
<clipPath id="clip0_115_306">
<rect width="152" height="40" fill="white"/>
</clipPath>
</defs>
</svg>
