<svg width="48" height="48" viewBox="0 0 48 48" fill="none" xmlns="http://www.w3.org/2000/svg">
<g clip-path="url(#clip0_115_403)">
<path d="M6 42H42" stroke="#C95F5F" stroke-width="2" stroke-linecap="round" stroke-linejoin="round"/>
<path d="M8 42V12C8 10.9391 8.42143 9.92172 9.17157 9.17157C9.92172 8.42143 10.9391 8 12 8H36C37.0609 8 38.0783 8.42143 38.8284 9.17157C39.5786 9.92172 40 10.9391 40 12V42" stroke="#C95F5F" stroke-width="2" stroke-linecap="round" stroke-linejoin="round"/>
<path d="M18 42V26C18 24.4087 18.6321 22.8826 19.7574 21.7574C20.8826 20.6321 22.4087 20 24 20C25.5913 20 27.1174 20.6321 28.2426 21.7574C29.3679 22.8826 30 24.4087 30 26V42" stroke="#C95F5F" stroke-width="2" stroke-linecap="round" stroke-linejoin="round"/>
</g>
<defs>
<clipPath id="clip0_115_403">
<rect width="48" height="48" fill="white"/>
</clipPath>
</defs>
</svg>
