<svg width="48" height="48" viewBox="0 0 48 48" fill="none" xmlns="http://www.w3.org/2000/svg">
<g clip-path="url(#clip0_115_433)">
<path d="M12 24C12 27.1826 13.2643 30.2348 15.5147 32.4853C17.7652 34.7357 20.8174 36 24 36C27.1826 36 30.2348 34.7357 32.4853 32.4853C34.7357 30.2348 36 27.1826 36 24C36 20.8174 34.7357 17.7652 32.4853 15.5147C30.2348 13.2643 27.1826 12 24 12C20.8174 12 17.7652 13.2643 15.5147 15.5147C13.2643 17.7652 12 20.8174 12 24Z" stroke="#C95F5F" stroke-width="2" stroke-linecap="round" stroke-linejoin="round"/>
<path d="M6 16C6 17.0609 6.42143 18.0783 7.17157 18.8284C7.92172 19.5786 8.93913 20 10 20C11.0609 20 12.0783 19.5786 12.8284 18.8284C13.5786 18.0783 14 17.0609 14 16C14 14.9391 13.5786 13.9217 12.8284 13.1716C12.0783 12.4214 11.0609 12 10 12C8.93913 12 7.92172 12.4214 7.17157 13.1716C6.42143 13.9217 6 14.9391 6 16Z" stroke="#C95F5F" stroke-width="2" stroke-linecap="round" stroke-linejoin="round"/>
<path d="M20 8C20 9.06087 20.4214 10.0783 21.1716 10.8284C21.9217 11.5786 22.9391 12 24 12C25.0609 12 26.0783 11.5786 26.8284 10.8284C27.5786 10.0783 28 9.06087 28 8C28 6.93913 27.5786 5.92172 26.8284 5.17157C26.0783 4.42143 25.0609 4 24 4C22.9391 4 21.9217 4.42143 21.1716 5.17157C20.4214 5.92172 20 6.93913 20 8Z" stroke="#C95F5F" stroke-width="2" stroke-linecap="round" stroke-linejoin="round"/>
<path d="M34 16C34 17.0609 34.4214 18.0783 35.1716 18.8284C35.9217 19.5786 36.9391 20 38 20C39.0609 20 40.0783 19.5786 40.8284 18.8284C41.5786 18.0783 42 17.0609 42 16C42 14.9391 41.5786 13.9217 40.8284 13.1716C40.0783 12.4214 39.0609 12 38 12C36.9391 12 35.9217 12.4214 35.1716 13.1716C34.4214 13.9217 34 14.9391 34 16Z" stroke="#C95F5F" stroke-width="2" stroke-linecap="round" stroke-linejoin="round"/>
<path d="M6 32C6 33.0609 6.42143 34.0783 7.17157 34.8284C7.92172 35.5786 8.93913 36 10 36C11.0609 36 12.0783 35.5786 12.8284 34.8284C13.5786 34.0783 14 33.0609 14 32C14 30.9391 13.5786 29.9217 12.8284 29.1716C12.0783 28.4214 11.0609 28 10 28C8.93913 28 7.92172 28.4214 7.17157 29.1716C6.42143 29.9217 6 30.9391 6 32Z" stroke="#C95F5F" stroke-width="2" stroke-linecap="round" stroke-linejoin="round"/>
<path d="M34 32C34 33.0609 34.4214 34.0783 35.1716 34.8284C35.9217 35.5786 36.9391 36 38 36C39.0609 36 40.0783 35.5786 40.8284 34.8284C41.5786 34.0783 42 33.0609 42 32C42 30.9391 41.5786 29.9217 40.8284 29.1716C40.0783 28.4214 39.0609 28 38 28C36.9391 28 35.9217 28.4214 35.1716 29.1716C34.4214 29.9217 34 30.9391 34 32Z" stroke="#C95F5F" stroke-width="2" stroke-linecap="round" stroke-linejoin="round"/>
<path d="M16 44L24 24L32 44" stroke="#C95F5F" stroke-width="2" stroke-linecap="round" stroke-linejoin="round"/>
</g>
<defs>
<clipPath id="clip0_115_433">
<rect width="48" height="48" fill="white"/>
</clipPath>
</defs>
</svg>
