<svg width="48" height="48" viewBox="0 0 48 48" fill="none" xmlns="http://www.w3.org/2000/svg">
<g clip-path="url(#clip0_115_176)">
<path d="M24 26L20 22" stroke="#C36A6A" stroke-width="2" stroke-linecap="round" stroke-linejoin="round"/>
<path d="M24 24L28 20" stroke="#C36A6A" stroke-width="2" stroke-linecap="round" stroke-linejoin="round"/>
<path d="M24 42V16" stroke="#C36A6A" stroke-width="2" stroke-linecap="round" stroke-linejoin="round"/>
<path d="M19.6464 32.0009C18.7714 31.9496 17.9182 31.7073 17.1468 31.2909C16.3755 30.8745 15.7048 30.2941 15.1818 29.5906C14.6589 28.8872 14.2965 28.0776 14.12 27.219C13.9435 26.3604 13.9573 25.4736 14.1604 24.6209C13.4354 24.0171 12.8629 23.2508 12.4896 22.3842C12.1163 21.5177 11.9526 20.5753 12.0118 19.6336C12.0711 18.6919 12.3516 17.7775 12.8305 16.9645C13.3095 16.1516 13.9734 15.4631 14.7684 14.9549C14.0712 13.7162 13.8363 12.2702 14.1058 10.8745C14.3752 9.4788 15.1314 8.2241 16.2396 7.33393C17.3478 6.44377 18.736 5.97596 20.157 6.01385C21.5779 6.05175 22.9393 6.5929 23.9984 7.54087C25.0579 6.5944 26.4187 6.05453 27.8389 6.01737C29.259 5.98021 30.6463 6.44816 31.7538 7.33793C32.8613 8.2277 33.6171 9.48157 33.8868 10.8764C34.1564 12.2712 33.9224 13.7164 33.2264 14.9549C34.0216 15.4629 34.6857 16.1513 35.1648 16.9641C35.644 17.777 35.9247 18.6914 35.9841 19.6331C36.0435 20.5748 35.88 21.5172 35.5068 22.3839C35.1337 23.2505 34.5614 24.0169 33.8364 24.6209C34.0464 25.5025 34.0539 26.4202 33.8584 27.3051C33.6629 28.19 33.2696 29.0191 32.7078 29.7302C32.146 30.4413 31.4305 31.016 30.6148 31.411C29.7992 31.806 28.9047 32.0111 27.9984 32.0109H19.9984L19.6464 32.0009Z" stroke="#C36A6A" stroke-width="2" stroke-linecap="round" stroke-linejoin="round"/>
</g>
<defs>
<clipPath id="clip0_115_176">
<rect width="48" height="48" fill="white"/>
</clipPath>
</defs>
</svg>
